<?xml version="1.0" encoding="UTF-8" standalone="no"?>
<!-- Created with Inkscape (http://www.inkscape.org/) -->

<svg
   version="1.1"
   id="svg1"
   width="576"
   height="297"
   viewBox="0 0 576 297"
   sodipodi:docname="Лого.svg"
   inkscape:version="1.3.2 (091e20e, 2023-11-25, custom)"
   xmlns:inkscape="http://www.inkscape.org/namespaces/inkscape"
   xmlns:sodipodi="http://sodipodi.sourceforge.net/DTD/sodipodi-0.dtd"
   xmlns="http://www.w3.org/2000/svg"
   xmlns:svg="http://www.w3.org/2000/svg">
  <defs
     id="defs1" />
  <sodipodi:namedview
     id="namedview1"
     pagecolor="#ffffff"
     bordercolor="#000000"
     borderopacity="0.25"
     inkscape:showpageshadow="2"
     inkscape:pageopacity="0.0"
     inkscape:pagecheckerboard="0"
     inkscape:deskcolor="#d1d1d1"
     inkscape:zoom="0.86117258"
     inkscape:cx="668.27488"
     inkscape:cy="156.1824"
     inkscape:window-width="1920"
     inkscape:window-height="1017"
     inkscape:window-x="-8"
     inkscape:window-y="-8"
     inkscape:window-maximized="1"
     inkscape:current-layer="g1" />
  <g
     inkscape:groupmode="layer"
     inkscape:label="Image"
     id="g1"
     style="display:inline"
     transform="translate(-685.11238,52.254334)">
    <path
       style="fill:#414141;stroke:none"
       d="m 1174.9512,-50.254334 5,6 c -1.3051,6.466248 -7.3047,7.521515 -13,9 0.2227,-2.5802 1.9647,-7.519898 0.1069,-9.731323 -2.0421,-2.43097 -7.8798,-0.82837 -7.5627,2.64624 0.25,2.739288 4.0605,5.738617 5.4558,8.085083 -6.0408,1.317871 -12.0223,3.671448 -17,-1 10.7369,-10.738892 -15.6703,-2.007874 -2,0 l 1,5 c -8.8724,2.245636 -13.9322,10.829987 -23.0002,13.540619 -48.0495,14.3629607 -97.377,25.7978667 -145.99982,38.08786 -17.87408,4.517883 -40.49107,15.332703 -58.95004,14.720062 -10.62822,-0.352737 -9.0273,-11.196762 -7.30461,-18.348541 3.31854,-13.7770083 1.45195,-30.750305 -14.74599,-34.889648 -29.0963,-7.435486 -50.58284,26.9980917 -74.99936,35.413009 -40.62532,14.001114 -86.37792,-31.028183 -123.86894,3.853348 -17.04534,15.858948 -15.62704,41.767941 -11.09214,62.623291 10.86205,49.952914 66.28151,123.075264 122.96108,88.000004 v -1 c -31.96499,-13.49423 -57.70852,-57.30855 -16.99978,-79.467854 14.78554,-8.04832 34.69607,0.0793 47.84286,-8.86681 12.79338,-8.70559 8.63994,-28.99299 23.20491,-36.355831 10.2016,-5.157074 22.46492,0.172623 32.95201,1.605651 15.69339,2.14447 31.5593,0.98461 47,-2.386962 66.57242,-14.536484 130.83002,-41.5178073 197.00002,-58.408813 11.726,-2.993256 28.0965,-10.913758 39.9986,-5.836792 6.398,2.729126 10.0801,8.9695577 16.1492,11.9494017 3.8003,1.865905 14.1371,2.313919 17.0646,-1.483445 2.7279,-3.5384517 -0.4536,-9.5561977 -2.3346,-12.7361287 -5.5755,-9.425843 -14.837,-13.88263 -13.8778,-26.012421 l -15,6 -1,-5 c 9.2554,-3.083496 -2.1979,-5.986908 -7,-5 M 871.95118,131.74567 c -6.02347,0 -14.78743,-1.58961 -20.3871,0.88699 -8.61443,3.80997 1.96974,9.76209 6.3871,10.11301 -0.46115,12.11058 -11.48152,14.5423 -20.79149,7.7525 -10.61551,-7.74194 -11.27952,-24.42152 -1.93288,-33.35731 12.27558,-11.73596 26.01203,4.40916 36.72437,-8.39519 -24.53291,-24.241844 -67.67792,0.30431 -57.38211,34 5.65391,18.50389 38.8557,34.10753 54.41042,17.07956 5.66125,-6.19746 2.97169,-20.28597 2.97169,-28.07956 m 11,-32.000004 c 0,15.592034 -4.33823,39.006044 3.66603,52.952424 10.19722,17.76732 40.35112,17.7508 49.60341,-0.96656 6.91135,-13.98166 2.73056,-36.70295 2.73056,-51.985864 h -15 c 0,12.313254 6.68741,53.209634 -12.99986,53.209634 -19.62435,0 -13.00014,-40.95487 -13.00014,-53.209634 h -15 m 70,0 v 46.000004 l 1.70663,17.74716 13.29337,2.25284 V 99.745666 h -15 m 25,0 v 12.000004 h 19 v 54 l 13.29332,-2.25284 1.7066,-14.74716 10e-5,-37 h 18 V 99.745666 h -52.00002 m 48.00002,66.000004 c 12.0007,-0.0228 17.278,-2.76543 20,-15 l 23.3984,1.25275 7.7481,10.77644 14.8535,2.97081 c -5.0831,-17.65312 -12.9098,-34.89957 -19.6175,-51.99969 -3.3618,-8.5702 -6.9873,-16.732614 -17.9708,-13.39188 -5.9635,1.81381 -7.7995,11.29483 -9.7944,16.39157 -6.338,16.19266 -13.431,32.40312 -18.6173,49 m 73,-66.000004 c 1.9242,20.536034 3.5682,44.635764 0,65.000004 h 16 c -0.6836,-3.90103 -3.7954,-23.71439 4.1453,-22.04984 7.5179,1.57593 10.2166,14.35859 15.0678,19.30895 4.5598,4.653 11.8254,3.73657 17.7869,3.74089 -3.491,-10.14281 -10.1721,-20.68236 -18,-28 13.1573,-7.28198 18.945,-26.21056 2.9606,-34.54051 -10.9787,-5.721304 -26,-3.459494 -37.9606,-3.459494 m 17.9716,12.278004 c 10.0454,-5.97447 20.5776,10.56194 9.7301,16.83105 -11.8223,6.83245 -18.094,-11.85658 -9.7301,-16.83105 m -57.9716,2.722 9,26 h -18 l 9,-26 m -167.00002,119 -1,4 c 13.81757,8.14584 46.21205,6.61447 36.80186,-17.86853 -4.35525,-11.33133 -19.64184,-9.52924 -26.82592,-17.76848 -6.29315,-7.21745 -0.44283,-16.92622 8.03863,-18.58244 6.24834,-1.22014 12.18675,2.48422 17.98543,4.21945 -8.10649,-14.53247 -35.89445,-8.20859 -33.06758,9.99628 2.37021,15.26391 21.39708,11.8898 28.6255,22.44549 5.81116,8.48606 -2.68472,19.00077 -11.55873,20.082 -7.06459,0.86078 -13.06534,-3.39035 -18.99919,-6.52377 m 102,1 c -10.41772,0.90726 -17.92114,8.29993 -28.99979,4.60422 -22.18939,-7.40213 -25.05465,-39.75058 -5.9692,-52.24677 12.18029,-7.97502 21.5931,0.0317 33.96899,0.64255 -35.68188,-33.99911 -75.67433,37.31653 -32.99854,54.21143 4.98856,1.97491 10.71463,2.01617 15.99854,1.60879 7.33221,-0.56528 12.93744,-3.6141 18,-8.82022 m 15.00002,-55 v 64 h 4 v -31 h 40 v 31 c 10.11,-4.61374 4.9986,-37.07126 4.9998,-47 4e-4,-2.57149 1.3965,-14.12396 -2.281,-14.85849 -3.833,-0.76559 -2.7188,13.84209 -2.7188,15.85649 v 12.002 h -40 v -30 h -4 m 88,0.70099 c -38.0204,7.63254 -24.5078,70.08569 14.9999,62.71341 38.4131,-7.168 25.2085,-70.78519 -14.9999,-62.71341 m 73,0.1188 c -37.8819,8.87078 -23.7107,71.0889 15.9999,62.40924 37.6898,-8.23794 23.7498,-71.7174 -15.9999,-62.40924 m 55,-0.81979 v 64 c 9.7633,0 27.0618,3.39676 35,-3 l -31,-1 v -60 h -4 m -123,3.48923 c 34.2255,-3.57849 39.1381,53.11014 6,57.1203 -34.927,4.22662 -39.8723,-53.57875 -6,-57.1203 m 72,0.0456 c 34.3097,-5.27861 41.2286,51.8139 8,56.93042 -34.7873,5.35651 -41.3486,-51.79967 -8,-56.93042 z"
       id="path2" />
  </g>
</svg>
