<svg width="245" height="252" viewBox="0 0 245 252" fill="none" xmlns="http://www.w3.org/2000/svg">
<path fill-rule="evenodd" clip-rule="evenodd" d="M244.113 138.001C244.417 134.623 244.592 131.206 244.631 127.756L125.112 0.537119C124.184 0.515747 123.253 0.505005 122.32 0.505005C119.909 0.505005 117.515 0.576687 115.139 0.718091L244.113 138.001ZM113.847 0.801993C110.747 1.01998 107.68 1.35665 104.648 1.80761L242.689 148.741C243.233 145.641 243.667 142.501 243.986 139.326L113.847 0.801993ZM240.228 159.838C239.487 162.593 238.657 165.311 237.742 167.987L85.7626 6.21706C88.3957 5.37041 91.0672 4.61281 93.7736 3.94768L240.228 159.838ZM77.1848 9.34257C79.6558 8.33354 82.1663 7.4049 84.7134 6.55979L237.372 169.053C236.461 171.639 235.471 174.185 234.403 176.689L77.1848 9.34257ZM237.263 83.146C239.047 88.1708 240.528 93.3454 241.683 98.6464L153.304 4.57443C158.416 5.94627 163.397 7.64951 168.226 9.66049L237.263 83.146ZM139.065 1.67353C143.279 2.26657 147.424 3.08025 151.49 4.10287L242.077 100.526C242.929 104.736 243.575 109.023 244.006 113.376L139.065 1.67353ZM244.64 126.306L244.64 126.253C244.64 122.458 244.476 118.703 244.156 114.995L137.496 1.46338C133.884 1.00389 130.224 0.706265 126.521 0.577793L244.64 126.306ZM242.468 149.966C241.92 152.914 241.273 155.826 240.529 158.698L94.8919 3.67857C97.7089 3.01513 100.563 2.45168 103.45 1.99205L242.468 149.966ZM224.902 57.7319C229.46 64.93 233.322 72.6377 236.387 80.7538L170.522 10.6452C178.302 14.0779 185.666 18.3163 192.514 23.2583L224.902 57.7319ZM60.6013 17.662C58.4531 18.9551 56.3468 20.3136 54.2848 21.735L221.558 199.784C223.011 197.715 224.405 195.598 225.737 193.436L60.6013 17.662ZM61.4802 17.138C63.6693 15.8452 65.9011 14.6201 68.1728 13.4653L230.08 185.804C228.879 188.097 227.61 190.347 226.277 192.551L61.4802 17.138ZM69.104 12.997C71.4284 11.8406 73.7938 10.7576 76.1973 9.75098L233.971 177.689C232.909 180.123 231.774 182.515 230.568 184.863L69.104 12.997ZM197.301 26.8931C206.522 34.2583 214.691 42.9502 221.536 52.6903L197.301 26.8931ZM53.4554 22.3117L220.968 200.616C219.513 202.653 218 204.643 216.431 206.583L47.4976 26.7667C49.438 25.2222 51.4247 23.7363 53.4554 22.3117ZM46.7159 27.3942L215.794 207.365C214.219 209.28 212.59 211.147 210.909 212.961L41.1061 32.2191C42.9281 30.5548 44.7989 28.9457 46.7159 27.3942ZM40.3709 32.8961L210.225 213.693C208.534 215.49 206.791 217.235 204.998 218.926L35.1032 38.0856C36.8086 36.3029 38.5653 34.5722 40.3709 32.8961ZM184.911 234.313C187.045 233.004 189.137 231.63 191.184 230.193L23.6712 51.8887C22.2037 53.9427 20.7954 56.0442 19.4489 58.1905L184.911 234.313ZM24.2665 51.0628L192.008 229.611C194.025 228.171 195.997 226.67 197.924 225.111L28.8457 45.1404C27.2632 47.0658 25.7359 49.0408 24.2665 51.0628ZM29.4884 44.3649L198.7 224.478C200.603 222.911 202.461 221.287 204.269 219.609L34.4141 38.8117C32.7195 40.6117 31.0768 42.4636 29.4884 44.3649ZM18.9029 59.0689L184.038 234.843C181.865 236.152 179.648 237.393 177.392 238.565L15.0534 65.768C16.2709 63.4911 17.5549 61.2571 18.9029 59.0689ZM14.5593 66.7016L176.467 239.04C174.159 240.213 171.81 241.313 169.423 242.338L11.1068 73.8229C12.1863 71.4069 13.338 69.0322 14.5593 66.7016ZM10.6683 74.8156L168.442 242.754C165.989 243.781 163.497 244.729 160.968 245.594L7.64555 82.3947C8.57491 79.8277 9.5835 77.3003 10.6683 74.8156ZM132.073 251.606C135.145 251.357 138.185 250.991 141.189 250.513L2.17169 102.54C1.60162 105.611 1.1402 108.721 0.791693 111.867L132.073 251.606ZM2.40298 101.326L142.377 250.318C145.241 249.832 148.072 249.244 150.866 248.557L4.41132 92.6675C3.64568 95.5145 2.97499 98.402 2.40298 101.326ZM4.72082 91.5374L151.976 248.279C154.662 247.591 157.313 246.812 159.926 245.945L7.26794 83.4523C6.33333 86.1069 5.48318 88.8031 4.72082 91.5374ZM122.32 252C125.168 252 127.993 251.9 130.793 251.703L0.653105 113.179C0.317326 116.521 0.108839 119.901 0.0327154 123.315L120.921 251.992C121.387 251.997 121.853 252 122.32 252ZM119.528 251.968L0.00856363 124.749C0.0028598 125.249 -2.19369e-08 125.751 0 126.253C1.4211e-07 129.504 0.120014 132.726 0.355737 135.915L108.69 251.228C112.258 251.635 115.873 251.884 119.528 251.968ZM107.143 251.042L0.483554 137.511C0.85245 141.785 1.42937 145.998 2.20385 150.138L94.9269 248.835C98.9278 249.776 103.003 250.515 107.143 251.042ZM78.6269 243.74C83.3349 245.592 88.1826 247.153 93.1493 248.402L2.56214 151.979C3.60321 157.127 4.95044 162.159 6.58339 167.056L78.6269 243.74ZM7.37623 169.359L76.4141 242.845C69.2642 239.867 62.4505 236.214 56.0477 231.963L17.2359 190.65C13.3325 183.934 10.0213 176.811 7.37623 169.359ZM52.1245 229.246L19.7384 194.774C28.2943 208.283 39.3067 219.997 52.1245 229.246Z" fill="url(#paint0_linear_47_64)" fill-opacity="0.5"/>
<defs>
<linearGradient id="paint0_linear_47_64" x1="37.434" y1="0.504994" x2="217.272" y2="247.31" gradientUnits="userSpaceOnUse">
<stop offset="0.075" stop-color="#ED7B50"/>
<stop offset="0.55" stop-color="#4991FA"/>
<stop offset="0.935" stop-color="#8C8C8C"/>
</linearGradient>
</defs>
</svg>
